HIERARCHY
ROOT SpineBase
{
  OFFSET 0.000000 0.000000 0.000000
  CHANNELS 6 Xposition Yposition Zposition Zrotation Xrotation Yrotation
  JOINT SpineMid
  {
    OFFSET 0.000000 30.990951 0.000000
    CHANNELS 3 Zrotation Xrotation Yrotation
    JOINT SpineShoulder
    {
      OFFSET 0.238198 23.012683 -0.753174
      CHANNELS 3 Zrotation Xrotation Yrotation
      JOINT Neck
      {
        OFFSET 0.179887 7.615766 -0.576259
        CHANNELS 3 Zrotation Xrotation Yrotation
        JOINT Head
        {
          OFFSET 4.201337 11.947559 4.943162
          CHANNELS 3 Zrotation Xrotation Yrotation
          End Site
          {
            OFFSET 0 0 0
          }
        }
      }
      JOINT ShoulderLeft
      {
        OFFSET -7.055151 -3.344102 -14.968348
        CHANNELS 3 Zrotation Xrotation Yrotation
        JOINT ElbowLeft
        {
          OFFSET -4.701352 -20.892183 -5.795888
          CHANNELS 3 Zrotation Xrotation Yrotation
          JOINT WristLeft
          {
            OFFSET 23.891511 -11.234581 6.960908
            CHANNELS 3 Zrotation Xrotation Yrotation
            JOINT HandLeft
            {
              OFFSET 7.184507 -2.346559 5.035794
              CHANNELS 3 Zrotation Xrotation Yrotation
              JOINT HandTipLeft
              {
                OFFSET 4.539199 -2.599961 2.478626
                CHANNELS 3 Zrotation Xrotation Yrotation
                End Site
                {
                  OFFSET 0 0 0
                }
              }
              JOINT ThumbLeft
              {
                OFFSET -0.101236 4.095606 2.595058
                CHANNELS 3 Zrotation Xrotation Yrotation
                End Site
                {
                  OFFSET 0 0 0
                }
              }
            }
          }
        }
      }
      JOINT ShoulderRight
      {
        OFFSET 7.955992 -4.594834 15.526540
        CHANNELS 3 Zrotation Xrotation Yrotation
        JOINT ElbowRight
        {
          OFFSET 3.179629 -25.579030 2.172298
          CHANNELS 3 Zrotation Xrotation Yrotation
          JOINT WristRight
          {
            OFFSET 8.115393 -11.030171 -24.847005
            CHANNELS 3 Zrotation Xrotation Yrotation
            JOINT HandRight
            {
              OFFSET -0.124234 0.722224 -3.208531
              CHANNELS 3 Zrotation Xrotation Yrotation
              JOINT HandTipRight
              {
                OFFSET 1.455307 -0.083496 -1.631252
                CHANNELS 3 Zrotation Xrotation Yrotation
                End Site
                {
                  OFFSET 0 0 0
                }
              }
              JOINT ThumbRight
              {
                OFFSET 2.306067 -2.097424 -0.206058
                CHANNELS 3 Zrotation Xrotation Yrotation
                End Site
                {
                  OFFSET 0 0 0
                }
              }
            }
          }
        }
      }
    }
  }
  JOINT HipLeft
  {
    OFFSET -2.146640 2.155127 -9.265565
    CHANNELS 3 Zrotation Xrotation Yrotation
    JOINT KneeLeft
    {
      OFFSET -8.464292 -35.819614 -5.696645
      CHANNELS 3 Zrotation Xrotation Yrotation
      JOINT AnkleLeft
      {
        OFFSET -10.796462 -35.249645 -0.844918
        CHANNELS 3 Zrotation Xrotation Yrotation
        JOINT FootLeft
        {
          OFFSET 10.155912 -3.471274 -7.838242
          CHANNELS 3 Zrotation Xrotation Yrotation
          End Site
          {
            OFFSET 0 0 0
          }
        }
      }
    }
  }
  JOINT HipRight
  {
    OFFSET 4.303505 -0.206332 2.218551
    CHANNELS 3 Zrotation Xrotation Yrotation
    JOINT KneeRight
    {
      OFFSET -2.700402 -37.783468 5.209744
      CHANNELS 3 Zrotation Xrotation Yrotation
      JOINT AnkleRight
      {
        OFFSET -8.268672 -32.960070 2.581634
        CHANNELS 3 Zrotation Xrotation Yrotation
        JOINT FootRight
        {
          OFFSET 9.954634 -3.528805 -7.937877
          CHANNELS 3 Zrotation Xrotation Yrotation
          End Site
          {
            OFFSET 0 0 0
          }
        }
      }
    }
  }
}
MOTION
Frames: 14
Frame Time: 0.033333
-98.786429 75.024028 323.368786 -0.000000 0.000000 -60.678911 -0.000000 0.000000 60.678911 -0.000000 0.000000 0.000000 -0.000000 0.000000 0.000000 0.000000 0.000000 0.000000 -0.000000 0.000000 0.000000 -0.000000 0.000000 0.000000 -0.000000 0.000000 0.000000 -0.000000 0.000000 0.000000 0.000000 0.000000 0.000000 0.000000 0.000000 0.000000 -0.000000 0.000000 0.000000 -0.000000 0.000000 0.000000 -0.000000 0.000000 0.000000 -0.000000 0.000000 0.000000 0.000000 0.000000 0.000000 0.000000 0.000000 0.000000 -0.000000 0.000000 60.678911 -0.000000 0.000000 0.000000 -0.000000 0.000000 0.000000 0.000000 0.000000 0.000000 -0.000000 0.000000 60.678911 -0.000000 0.000000 0.000000 -0.000000 0.000000 0.000000 0.000000 0.000000 0.000000
-98.768748 74.986584 323.597069 0.068193 -0.066997 -60.280022 -0.091992 -0.026008 60.280041 -0.000000 0.000000 0.000000 -0.000000 0.000000 0.000000 0.000000 0.000000 0.000000 -0.000000 0.000000 0.000000 -0.000000 0.000000 0.000000 1.658076 -0.055217 3.242366 -1.652303 0.148873 -3.239421 0.000000 0.000000 0.000000 0.000000 0.000000 0.000000 0.316991 1.493705 0.208634 -1.054064 -3.766538 -0.303065 -0.400094 1.445202 -4.890108 4.352453 7.190870 15.986197 0.000000 0.000000 0.000000 0.000000 0.000000 0.000000 -0.091992 -0.026008 60.280041 -0.000000 0.000000 0.000000 -0.000000 0.000000 0.000000 0.000000 0.000000 0.000000 -0.091992 -0.026008 60.280041 -0.000000 0.000000 0.000000 -0.000000 0.000000 0.000000 0.000000 0.000000 0.000000
-98.757757 74.953647 323.795597 0.125267 -0.127635 -59.904530 -0.173243 -0.044378 59.904602 -0.000000 0.000000 0.000000 -0.000000 0.000000 0.000000 0.000000 0.000000 0.000000 -0.000000 0.000000 0.000000 -0.892039 0.444480 0.403632 3.837155 -0.382258 5.744047 -2.066430 -0.554725 -6.391131 0.000000 0.000000 0.000000 0.000000 0.000000 0.000000 0.572982 2.744546 0.376695 -1.923796 -6.795850 -0.596232 -0.798671 2.327071 -8.836932 6.229160 14.298152 28.342984 0.000000 0.000000 0.000000 0.000000 0.000000 0.000000 -0.173243 -0.044378 59.904602 -0.000000 0.000000 0.000000 -0.000000 0.000000 0.000000 0.000000 0.000000 0.000000 -0.173243 -0.044378 59.904602 -0.000000 0.000000 0.000000 -0.000000 0.000000 0.000000 0.000000 0.000000 0.000000
-98.753455 74.925214 323.964372 0.171212 -0.181907 -59.555152 -0.243579 -0.055431 59.555306 -0.000000 0.000000 0.000000 -0.000000 0.000000 0.000000 0.000000 0.000000 0.000000 -0.000000 0.000000 0.000000 -1.146877 0.602168 0.590472 4.969205 -0.259034 8.031816 -2.613878 -0.950754 -8.877760 0.000000 0.000000 0.000000 0.000000 0.000000 0.000000 0.760395 3.705572 0.501727 -2.580102 -9.030040 -0.834629 -1.160316 2.598845 -11.755012 6.607588 20.416087 37.089464 0.000000 0.000000 0.000000 0.000000 0.000000 0.000000 -0.243579 -0.055431 59.555306 -0.000000 0.000000 0.000000 -0.000000 0.000000 0.000000 0.000000 0.000000 0.000000 -0.243579 -0.055431 59.555306 -0.000000 0.000000 0.000000 -0.000000 0.000000 0.000000 0.000000 0.000000 0.000000
-98.755844 74.901287 324.103392 0.206021 -0.229804 -59.234385 -0.302848 -0.059476 59.234641 -0.000000 0.000000 0.000000 0.212765 -0.863699 0.218121 0.000000 0.000000 0.000000 -0.265595 -0.853154 0.264099 -1.001378 1.575425 0.516997 5.537017 0.032106 9.866421 -2.804483 -1.452384 -10.831325 0.000000 0.000000 0.000000 0.000000 0.000000 0.000000 0.873281 4.338699 0.581984 -2.996062 -10.427688 -0.980079 -1.456474 2.225496 -13.619402 6.420116 25.450660 42.527327 0.000000 0.000000 0.000000 0.000000 0.000000 0.000000 -0.302848 -0.059476 59.234641 -0.000000 0.000000 0.000000 -0.000000 0.000000 0.000000 0.000000 0.000000 0.000000 -0.302848 -0.059476 59.234641 -0.000000 0.000000 0.000000 -0.000000 0.000000 0.000000 0.000000 0.000000 0.000000
-98.764922 74.881865 324.212659 0.229689 -0.271323 -58.944460 -0.350922 -0.056802 58.944830 -0.000000 0.000000 0.000000 0.342158 -1.011451 0.218165 0.000000 0.000000 0.000000 -0.280814 -0.958896 0.291854 -0.983627 1.755715 0.654767 5.527300 0.467506 11.223218 -2.622129 -2.069555 -12.220200 0.000000 0.000000 0.000000 0.000000 0.000000 0.000000 0.907678 4.617394 0.616270 -3.152088 -10.962286 -1.005851 -1.660626 1.185986 -14.434317 6.325935 29.593531 44.898805 0.000000 0.000000 0.000000 0.000000 0.000000 0.000000 -1.012704 0.495992 58.725191 -0.128892 -0.852592 0.221216 -0.054541 0.278572 0.934461 0.000000 0.000000 0.000000 -0.350922 -0.056802 58.944830 -0.000000 0.000000 0.000000 -0.050166 0.291316 0.930574 0.000000 0.000000 0.000000
-98.783783 74.866088 324.252176 0.237831 -0.272002 -58.706396 -0.355965 -0.061948 58.706768 -0.000000 0.000000 0.000000 0.529372 -1.126042 0.183205 0.000000 0.000000 0.000000 -0.321126 -1.016014 0.315454 -0.812678 1.836350 0.760977 5.403051 0.580262 11.531432 -3.067461 -1.263373 -11.838051 0.000000 0.000000 0.000000 0.000000 0.000000 0.000000 0.883363 4.716296 0.626824 -2.968272 -10.561886 -0.957556 -0.898677 0.669357 -11.159883 8.854117 26.877760 32.116011 0.000000 0.000000 0.000000 0.000000 0.000000 0.000000 -0.984207 0.505179 58.487734 -0.155111 -0.832018 0.220338 -0.074138 0.329209 1.125581 0.000000 0.000000 0.000000 -0.355965 -0.061948 58.706768 -0.000000 0.000000 0.000000 -0.064283 0.347802 1.120025 0.000000 0.000000 0.000000
-98.810437 74.863107 324.265273 0.230967 -0.267322 -58.588859 -0.348519 -0.057798 58.589222 -0.000000 0.000000 0.000000 0.742649 -1.255100 0.143214 0.000000 0.000000 0.000000 -0.318058 -0.994049 0.309723 -0.554654 1.780363 0.848913 3.898505 1.460873 11.836856 -2.418943 -1.794232 -11.988918 0.000000 0.000000 0.000000 0.000000 0.000000 0.000000 0.747859 4.197690 0.559420 -2.510896 -9.095373 -0.717270 -0.624103 -3.144317 -8.871009 10.766920 33.857109 31.114444 0.000000 0.000000 0.000000 0.000000 0.000000 0.000000 -0.898769 0.499600 58.381814 -0.624616 -0.056907 -0.000193 0.348135 -0.342317 1.460796 0.000000 0.000000 0.000000 -0.348519 -0.057798 58.589222 -0.000000 0.000000 0.000000 -0.076043 0.384336 1.248383 0.000000 0.000000 0.000000
-98.837761 74.854410 324.316848 0.220473 -0.330455 -58.334910 -0.396998 -0.014180 58.335497 -0.000000 0.000000 0.000000 0.988509 -1.328216 0.070099 0.000000 0.000000 0.000000 -0.211317 -0.890690 0.257865 -0.175044 1.588855 1.000372 1.401288 2.697554 11.706458 -1.849551 -1.232329 -10.357018 0.000000 0.000000 0.000000 0.000000 0.000000 0.000000 0.496775 3.050207 0.408914 -1.881366 -6.762299 -0.287656 -0.959272 -6.613590 -8.777951 10.912257 38.718915 33.963530 0.000000 0.000000 0.000000 0.000000 0.000000 0.000000 -0.988351 0.596561 58.110662 -0.696437 -0.084523 0.007155 0.378615 -0.351360 1.598309 0.000000 0.000000 0.000000 -0.396998 -0.014180 58.335497 -0.000000 0.000000 0.000000 -0.094915 0.414790 1.375908 0.000000 0.000000 0.000000
-98.860216 74.850358 324.354204 0.218405 -0.383885 -58.081297 -0.441314 0.017582 58.082096 -0.000000 0.000000 0.000000 1.223782 -1.421835 0.008932 0.000000 0.000000 0.000000 -0.106655 -0.931555 0.238841 0.264041 1.583329 1.238817 -0.998571 3.793097 11.387177 0.212528 -4.144085 -11.911109 0.000000 0.000000 0.000000 0.000000 0.000000 0.000000 0.006582 0.805184 0.100663 -0.781898 -2.442221 0.427742 -1.944632 -10.276142 -10.066148 8.266714 42.101506 43.195833 0.000000 0.000000 0.000000 0.000000 0.000000 0.000000 -1.077746 0.663296 57.844086 -0.724215 -0.114892 0.012583 0.384619 -0.345532 1.747327 0.000000 0.000000 0.000000 -0.441314 0.017582 58.082096 -0.000000 0.000000 0.000000 -0.112953 0.451046 1.517610 0.000000 0.000000 0.000000
-98.887612 74.843970 324.385372 0.203676 -0.427949 -57.844940 -0.470704 0.055322 57.845928 -0.000000 0.000000 0.000000 1.435314 -1.570748 -0.022036 0.000000 0.000000 0.000000 -0.014803 -0.973072 0.223475 0.436025 1.641041 1.440888 -2.636603 4.595665 11.256663 2.632245 -6.734537 -12.424866 0.000000 0.000000 0.000000 0.000000 0.000000 0.000000 -0.000000 0.000000 0.000000 -0.476047 -0.476670 0.728726 -2.529087 -13.103711 -10.736106 8.295688 43.681894 42.538617 0.000000 0.000000 0.000000 0.000000 0.000000 0.000000 -1.161162 0.743930 57.591956 -0.739425 -0.151696 0.019054 0.377425 -0.348627 1.885658 0.000000 0.000000 0.000000 -0.470704 0.055322 57.845928 -0.000000 0.000000 0.000000 -0.131444 0.482671 1.647445 0.000000 0.000000 0.000000
-98.920813 74.834998 324.404630 0.178784 -0.463220 -57.632246 -0.486962 0.096975 57.633380 -0.000000 0.000000 0.000000 1.587373 -1.724327 -0.026805 0.000000 0.000000 0.000000 0.063771 -1.031388 0.215546 0.611006 1.702438 1.599455 -3.418422 4.766541 10.510448 3.954924 -6.531319 -10.153969 0.000000 0.000000 0.000000 0.000000 0.000000 0.000000 -0.000000 0.000000 0.000000 -0.816667 -1.853522 0.482759 -1.663741 -12.123597 -9.068771 7.986426 38.297954 37.435701 0.000000 0.000000 0.000000 0.000000 0.000000 0.000000 -1.227899 0.841986 57.360582 -0.731986 -0.178912 0.023783 0.334555 -0.363575 2.034365 0.000000 0.000000 0.000000 -0.486962 0.096975 57.633380 -0.000000 0.000000 0.000000 -0.151780 0.514961 1.783291 0.000000 0.000000 0.000000
-98.953018 74.828657 324.400352 0.148847 -0.471253 -57.486257 -0.477397 0.127779 57.487402 -0.000000 0.000000 0.000000 1.690624 -1.897079 -0.004422 0.000000 0.000000 0.000000 0.174700 -1.099653 0.201278 0.780944 1.747670 1.723103 -4.298352 5.170409 10.444318 3.976938 -5.984063 -9.301670 0.000000 0.000000 0.000000 0.000000 0.000000 0.000000 0.235883 0.797130 0.117520 -1.124874 -2.955781 0.266546 -1.709295 -12.257447 -9.314951 4.417488 29.985822 38.225945 0.000000 0.000000 0.000000 0.000000 0.000000 0.000000 -1.235861 0.900297 57.206449 -0.674811 -0.176462 0.021521 0.252415 -0.370088 2.152604 0.000000 0.000000 0.000000 -0.477397 0.127779 57.487402 -0.000000 0.000000 0.000000 -0.168622 0.540444 1.892295 0.000000 0.000000 0.000000
-98.982399 74.818176 324.404633 0.123301 -0.485323 -57.325373 -0.475088 0.158219 57.326551 -0.000000 0.000000 0.000000 1.715065 -2.082952 0.054787 0.000000 0.000000 0.000000 0.306828 -1.077125 0.160671 0.764355 1.716538 1.811500 -4.877702 5.489268 10.529389 3.855157 -5.203580 -8.288265 0.000000 0.000000 0.000000 0.000000 0.000000 0.000000 0.275490 0.939148 0.137937 -1.180408 -3.228430 0.173625 -1.758598 -13.108385 -9.359621 5.151385 33.344172 38.447114 0.000000 0.000000 0.000000 0.000000 0.000000 0.000000 -1.275729 0.977593 57.030053 -0.626802 -0.228039 0.033707 0.176460 -0.351908 2.271155 0.000000 0.000000 0.000000 -0.475088 0.158219 57.326551 -0.000000 0.000000 0.000000 -0.185619 0.568455 2.008625 0.000000 0.000000 0.000000
